<?xml version="1.0" encoding="utf-8"?>
<!-- Generator: Adobe Illustrator 18.1.1, SVG Export Plug-In . SVG Version: 6.00 Build 0)  -->
<svg version="1.1" id="Layer_1" xmlns="http://www.w3.org/2000/svg" xmlns:xlink="http://www.w3.org/1999/xlink" x="0px" y="0px"
	 viewBox="0 0 505 388" enable-background="new 0 0 505 388" xml:space="preserve">
<g>
	<g>
		<g>
			<g>
				<polygon fill-rule="evenodd" clip-rule="evenodd" fill="#E6E7E8" points="128.5,301.7 284.3,146.1 239.8,105.1 367,107.4 
					368.8,223.3 329.2,187.6 214.7,301.7 				"/>
				<linearGradient id="SVGID_1_" gradientUnits="userSpaceOnUse" x1="56.6562" y1="293.9796" x2="239.8681" y2="110.7677">
					<stop  offset="0" style="stop-color:#C4161C"/>
					<stop  offset="0.25" style="stop-color:#F15A22"/>
					<stop  offset="0.5" style="stop-color:#92278F"/>
					<stop  offset="0.5424" style="stop-color:#873795"/>
					<stop  offset="0.6244" style="stop-color:#6453A3"/>
					<stop  offset="0.7368" style="stop-color:#006FB9"/>
					<stop  offset="0.75" style="stop-color:#0072BC"/>
					<stop  offset="0.8923" style="stop-color:#098879"/>
					<stop  offset="1" style="stop-color:#409A3C"/>
				</linearGradient>
				<polygon fill-rule="evenodd" clip-rule="evenodd" fill="url(#SVGID_1_)" points="218.1,8.8 367.1,8.8 367,107.4 243.4,106.8 
					286.1,146.1 130.3,301.7 14.5,301.7 264.3,51.3 				"/>
				<polygon fill-rule="evenodd" clip-rule="evenodd" fill="#9E7A38" points="367,107.4 455.5,107.4 455.5,301.7 417,268.1 
					381.7,301.7 212.9,301.7 329.2,185.8 367.1,219.8 				"/>
			</g>
		</g>
		<g>
			<g>
				<path fill="#6D6E71" d="M477.9,275.1c2.4,0,4.6,0.6,6.9,1.8c2.2,1.2,4,2.9,5.2,5.2c1.3,2.2,1.9,4.6,1.9,7c0,2.4-0.6,4.7-1.8,7
					c-1.2,2.2-3,4-5.2,5.2c-2.2,1.2-4.5,1.8-7,1.8c-2.4,0-4.8-0.6-7-1.8c-2.2-1.2-3.9-3-5.2-5.2c-1.2-2.2-1.9-4.6-1.9-7
					c0-2.4,0.6-4.8,1.9-7c1.3-2.2,3-4,5.2-5.2C473.2,275.7,475.5,275.1,477.9,275.1z M477.9,277.4c-2,0-3.9,0.5-5.8,1.5
					c-1.9,1-3.3,2.5-4.4,4.3c-1.1,1.9-1.6,3.8-1.6,5.9c0,2,0.5,4,1.6,5.8c1,1.9,2.5,3.3,4.3,4.3c1.9,1,3.8,1.6,5.8,1.6
					c2,0,4-0.5,5.8-1.6c1.9-1,3.3-2.5,4.3-4.3c1-1.9,1.5-3.8,1.5-5.8c0-2-0.5-4-1.6-5.9c-1-1.9-2.5-3.3-4.4-4.3
					C481.7,277.9,479.8,277.4,477.9,277.4z M471.7,296.9v-15.1h5.2c1.8,0,3.1,0.1,3.8,0.4c0.8,0.3,1.4,0.8,1.9,1.5
					c0.5,0.7,0.7,1.4,0.7,2.2c0,1.1-0.4,2.1-1.2,2.9c-0.8,0.8-1.8,1.3-3.1,1.4c0.5,0.2,1,0.5,1.3,0.8c0.6,0.6,1.3,1.6,2.2,3l1.8,3
					h-3l-1.3-2.4c-1.1-1.9-1.9-3-2.5-3.5c-0.4-0.3-1.1-0.5-1.9-0.5h-1.4v6.4H471.7z M474.1,288.4h3c1.4,0,2.4-0.2,2.9-0.6
					c0.5-0.4,0.8-1,0.8-1.7c0-0.4-0.1-0.8-0.4-1.2c-0.2-0.4-0.6-0.6-1-0.8c-0.4-0.2-1.3-0.3-2.4-0.3h-2.8V288.4z"/>
			</g>
		</g>
	</g>
	<g>
		<path fill="#6D6E71" d="M48.7,374.7L48.7,374.7c-3.8,5.3-8.1,7.8-15.2,7.8c-12.3,0-19-7.7-19-19.1c0-11,7.4-19.1,19.4-19.1
			c10.1,0,16.6,5.7,17.5,12.4h-4.1c-1.5-6.2-7-9-13.5-9c-9.9,0-15.4,6.1-15.4,15.6c0,9.8,5,15.6,14.6,15.6
			c10.9,0,14.3-6.2,15.5-12.7H35.4v-3.5h16.8v18.7h-2.9L48.7,374.7z"/>
		<path fill="#6D6E71" d="M77.2,344.4c10.3,0,19.7,6.3,19.7,19.1c0,12.8-9.4,19.1-19.7,19.1c-10.3,0-19.7-6.3-19.7-19.1
			C57.4,350.6,66.8,344.4,77.2,344.4z M77.2,379.1c8,0,15.7-4.7,15.7-15.6c0-10.9-7.7-15.6-15.7-15.6c-8,0-15.7,4.7-15.7,15.6
			C61.5,374.4,69.2,379.1,77.2,379.1z"/>
		<path fill="#6D6E71" d="M102.2,345.3h3.8v32.9h23v3.5h-26.8V345.3z"/>
		<path fill="#6D6E71" d="M132.3,345.3h17.6c10.6,0,16.1,6.8,16.1,18.2c0,10.2-5.3,18.2-15.5,18.2h-18.2V345.3z M136.1,378.2h13.7
			c6.5,0,12.2-3.6,12.2-14.7c0-9.6-3.8-14.7-12.2-14.7h-13.7V378.2z"/>
		<path fill="#6D6E71" d="M172.5,345.3h28.9v3.5h-25.1v12.3h24.2v3.5h-24.2v13.6h25.5v3.5h-29.3V345.3z"/>
		<path fill="#6D6E71" d="M206.7,345.3h4.5l25.4,31h0.1v-31h3.8v36.3h-4.4l-25.5-31h-0.1v31h-3.8V345.3z"/>
		<path fill="#6D6E71" d="M261.3,345.3h27.2v3.5H265v12.3h22.3v3.5H265v17.1h-3.8V345.3z"/>
		<path fill="#6D6E71" d="M303.3,363.2l-14.1-17.9h5l11.8,14.9l12.2-14.9h4.7L308.6,363l14.7,18.6h-5L305.9,366l-12.5,15.6h-4.8
			L303.3,363.2z"/>
		<path fill="#6D6E71" d="M340.4,345.3h3.8v32.9h23v3.5h-26.8V345.3z"/>
		<path fill="#6D6E71" d="M370.9,345.3h3.8v36.3h-3.8V345.3z"/>
		<path fill="#6D6E71" d="M381.8,345.3h4.5l25.4,31h0.1v-31h3.8v36.3h-4.4l-25.5-31h-0.1v31h-3.8V345.3z"/>
		<path fill="#6D6E71" d="M422.9,345.3h3.8v19.6l23.4-19.6h5.4l-18,15l19.2,21.3h-5.3l-16.8-18.8l-7.9,6.5v12.3h-3.8V345.3z"/>
	</g>
</g>
</svg>
