<?xml version="1.0" encoding="iso-8859-1"?>
<!-- Generator: Adobe Illustrator 22.0.1, SVG Export Plug-In . SVG Version: 6.00 Build 0)  -->
<svg version="1.1" id="icon_confidentiality" xmlns="http://www.w3.org/2000/svg" xmlns:xlink="http://www.w3.org/1999/xlink"
	 x="0px" y="0px" viewBox="0 0 16 16" style="enable-background:new 0 0 16 16;" xml:space="preserve">
<title>icon-ticket</title>
<path d="M8,0.15h7.44c0.5,0,0.54,0,0.55,0.52c0.01,0.52,0,1.17,0,1.75c0.024,0.17-0.094,0.326-0.264,0.35
	c-0.029,0.004-0.057,0.004-0.086,0h-1c-0.164,0.022-0.315-0.093-0.337-0.257C14.301,2.499,14.3,2.484,14.3,2.47
	c0-0.21,0.12-0.3,0.31-0.33h0.11c0.56-0.06,0.56-0.06,0.56-0.65s0-0.71-0.72-0.71H1c-0.35,0-0.45,0.1-0.4,0.42
	c0.005,0.07,0.005,0.14,0,0.21c0,0.23-0.06,0.51,0,0.67s0.41,0,0.62,0.06c0.188,0,0.34,0.152,0.34,0.34c0,0.21-0.14,0.3-0.33,0.3h-1
	C0.1,2.77,0,2.65,0,2.43V0.51c0-0.34,0.21-0.38,0.49-0.38H8V0.15z"/>
<path d="M14,1.39c-0.029-0.147-0.16-0.253-0.31-0.25c-0.154-0.017-0.292,0.093-0.31,0.247c0,0.001,0,0.002,0,0.003
	c0,0.11,0,0.22,0,0.33c0,1.36,0,2.73,0,4.1c0,0.22,0,0.32-0.29,0.31H9.56c-0.16,0-0.26,0-0.25-0.23c0-0.42,0-0.85,0-1.27
	C9.255,4.025,8.775,3.545,8.17,3.49c-0.666-0.08-1.288,0.349-1.45,1c-0.06,0.471-0.06,0.949,0,1.42c0,0.23-0.07,0.3-0.31,0.29
	c-1.12,0-2.25,0-3.37,0c-0.27,0-0.35-0.06-0.34-0.34c0-1.41,0-2.83,0-4.25c0-0.25-0.07-0.43-0.34-0.45s-0.3,0.2-0.3,0.4
	c0,1.64,0,3.27,0,4.9c0,0.23,0.1,0.35,0.32,0.35h1.19C3.233,7.475,3.499,8.287,4.164,8.624C4.189,8.637,4.214,8.649,4.24,8.66
	c0.13,0.08,0.13,0.12,0.1,0.25c-0.278,0.638,0.014,1.38,0.652,1.658c0.185,0.08,0.386,0.115,0.588,0.102c0.26,0,0.28,0.07,0.22,0.31
	c-0.291,1.197-0.221,2.453,0.2,3.61c0.129,0.378,0.3,0.74,0.51,1.08c0.061,0.142,0.226,0.208,0.368,0.146
	C6.889,15.812,6.9,15.806,6.91,15.8c0.153-0.063,0.226-0.238,0.164-0.391c-0.004-0.01-0.009-0.019-0.014-0.029
	c-0.07-0.15-0.15-0.31-0.21-0.46c-0.873-1.77-0.756-3.868,0.31-5.53c0.106-0.186,0.162-0.396,0.16-0.61c0-1.31,0-2.62,0-3.93
	c0-0.52,0.22-0.73,0.68-0.72s0.64,0.22,0.64,0.73c0,1.29,0,2.59,0,3.88c0,0.22,0.09,0.35,0.3,0.37s0.31-0.14,0.31-0.35
	c0-0.56,0-1.11,0-1.67c0-0.26,0.09-0.32,0.33-0.31c0.83,0,1.65,0,2.47,0c0.29,0,0.35,0.09,0.34,0.35
	c-0.034,1.086-0.216,2.163-0.54,3.2c-0.57,1.648-0.989,3.345-1.25,5.07c0,0.22-0.06,0.45,0.23,0.51s0.38-0.15,0.42-0.4
	c0.167-1.232,0.455-2.445,0.86-3.62c0.59-1.508,0.928-3.102,1-4.72c0-0.34,0.1-0.43,0.42-0.41s0.49,0,0.49-0.47V1.72
	C14.023,1.61,14.017,1.499,14,1.39z M6.38,9.4C6.344,9.448,6.316,9.502,6.3,9.56C6.21,9.99,5.92,10.03,5.55,10
	c-0.353,0.025-0.659-0.241-0.684-0.593C4.858,9.294,4.88,9.181,4.93,9.08c0.059-0.174,0.217-0.296,0.4-0.31c0.22,0,0.44,0,0.65,0
	C6.72,8.74,6.72,8.74,6.38,9.4z M5.7,8.06H5.52c-0.31,0-0.63,0-0.94,0S4.09,7.85,4.1,7.44s0.15-0.58,0.48-0.59c0.63,0,1.26,0,1.88,0
	c0.17,0,0.2,0.07,0.2,0.21C6.72,8.07,6.72,8.07,5.7,8.06z"/>
<path d="M4.61,8.72L4.61,8.72C4.61,8.72,4.63,8.7,4.61,8.72z"/>
</svg>
