<svg id="Layer_1" data-name="Layer 1" xmlns="http://www.w3.org/2000/svg" viewBox="0 0 123.26 27.74"><defs><style>.cls-1{fill:#231f20;}</style></defs><title>Untitled-1</title><path class="cls-1" d="M29.53,16A14.63,14.63,0,0,0,31,14.77c.14-.16.31-.1.48-.11h2.32a4.25,4.25,0,0,0,4.14-3A5.61,5.61,0,0,0,37.56,7a3.6,3.6,0,0,0-3.16-2c-.79,0-1.59,0-2.38,0-.4,0-.46.14-.46.49,0,1.89,0,3.78,0,5.67,0,3-1.49,4.66-4.47,5a7.45,7.45,0,0,1-3.62-.4,3.86,3.86,0,0,1-2.69-3.75c-.05-2.64,0-5.29,0-7.93,0-.33.1-.44.42-.42a9.45,9.45,0,0,0,1.19,0c.41,0,.5.13.5.51,0,2.33,0,4.65,0,7a8,8,0,0,0,0,.85,2.56,2.56,0,0,0,2.26,2.57,4.57,4.57,0,0,0,2.08,0,2.53,2.53,0,0,0,2.05-2.15,6.64,6.64,0,0,0,.1-1.18c0-2.3,0-4.61,0-6.91,0-.61.18-.71.72-.7,1.51,0,3,0,4.54,0,3.07,0,4.86,1.3,5.9,4.2,0-.23,0-.46,0-.68,0-1.15-.07-2.3,0-3.45a29,29,0,0,1,3.49-.06c1.15,0,2.31,0,3.46,0,.61,0,.54.31.54.7s0,.7-.56.68c-1.45,0-2.91,0-4.36,0-.37,0-.49.1-.48.48,0,1,0,1.93,0,2.89,0,.41.13.5.52.5,1.36,0,2.72,0,4.08,0,.42,0,.54.1.53.53,0,.91,0,.91-.88.91-1.27,0-2.53,0-3.8,0-.34,0-.46.09-.45.45,0,1.11,0,2.22,0,3.34,0,.33.12.41.43.4,1.68,0,3.36,0,5,0,.41,0,.45-.16.45-.5,0-3.23,0-6.46,0-9.69,0-.52.14-.62.65-.66a2.11,2.11,0,0,1,2,.95c2,2.55,4,5,6.08,7.55.1.12.21.25.43.49V12c0-2.57,0-5.14,0-7.71,0-.48.15-.59.61-.58h11c.45,0,.64.08.61.58,0,1,.11.82-.85.84H66.72c-.91,0-.79-.13-.79.76,0,3.18,0,6.35,0,9.52,0,.45-.08.66-.58.61a5.34,5.34,0,0,0-1.13,0c-.4,0-.51-.1-.5-.5,0-2.08,0-4.15,0-6.23,0-1.23,0-2.46,0-3.68,0-.37-.09-.49-.47-.48-1.11,0-2.23,0-3.34,0-.45,0-.52.14-.52.54,0,3.25,0,6.5,0,9.75,0,.48-.1.6-.6.64a2.07,2.07,0,0,1-1.95-.91c-2-2.51-4.06-5-6.1-7.45a1.45,1.45,0,0,0-.53-.51v.58c0,2.59,0,5.17,0,7.76,0,.39-.09.51-.49.51Q45.41,16,41,16c-.44,0-.53-.13-.52-.54,0-1.36,0-2.72,0-4.09l-.11,0c-.66,2.68-2.77,4.42-6,4.57C32.78,16.08,31.15,16,29.53,16Z" transform="translate(-2.7 -2.83)"/><path class="cls-1" d="M73.64,24.71c0-.44,0-.87,0-1.3s.32-.69.79-.66c.16,0,.32,0,.35.2s0,.35-.13.39c-.32.08-.27.31-.28.53,0,.73,0,1.47,0,2.2,0,.36,0,.72.44.82a1.35,1.35,0,0,0,1.24-.22c.13-.1.07-.23.07-.36,0-.42,0-.83,0-1.25s0-.63-.4-.81-.15-.52-.07-.81.16-.68.57-.66a3.92,3.92,0,0,1,1,.22c.16,0,.13.2.11.33s-.1.3-.29.26a2.72,2.72,0,0,1-.49-.13c-.17-.06-.29-.06-.35.14s-.08.31.13.36c.51.11.54.5.54.92s0,.94,0,1.41.26.64.69.65.87,0,1-.53a9.31,9.31,0,0,0,0-1.75c0-.25-.21-.28-.39-.34-.58-.18-.33-.58-.24-.92s.24-.75.77-.6a5.13,5.13,0,0,0,.65.16c.25,0,.26.17.24.36a.28.28,0,0,1-.34.28c-.26,0-.6-.41-.77,0s.41.31.58.53a.81.81,0,0,1,.2.57c0,.49,0,1,0,1.47,0,.9-.34,1.24-1.24,1.38a1.77,1.77,0,0,1-1.21-.15.87.87,0,0,0-1,0,1.4,1.4,0,0,1-2.15-1.27c0-.47,0-.94,0-1.41Z" transform="translate(-2.7 -2.83)"/><path class="cls-1" d="M6.7,28.16a1.85,1.85,0,0,1-2.5,1.22,1,1,0,0,1-.85-1.11c0-1.13,0-2.26,0-3.39,0-.27,0-.46-.32-.58s-.27-.48-.18-.76.13-.77.61-.77a3.77,3.77,0,0,1,1,.23c.16.05.13.21.1.34s-.11.29-.3.25a2.75,2.75,0,0,1-.49-.14c-.18-.06-.28,0-.34.16s-.07.3.13.35c.51.12.55.5.54.92,0,1.09,0,2.19,0,3.28,0,.6.33.68.79.69.74,0,1-.1,1-.63,0-.37.15-.46.47-.42h.4c.55-.08.86.07.76.71,0,.24,0,.45.36.46s.39-.2.41-.48-.19-.75.42-.69c.1,0,.22,0,.23.13,0,.41.16.86-.12,1.21a1.3,1.3,0,0,1-1.42.27.76.76,0,0,1-.59-.84A3,3,0,0,0,6.7,28.16Z" transform="translate(-2.7 -2.83)"/><path class="cls-1" d="M15.61,26.66c-.12.18,0,.37-.07.55s-.14.36-.4.35-.34-.11-.33-.34V25.91c0-.14,0-.28.17-.31s.36-.1.47.06c.34.49,1.05.54,1.28,1.16a.25.25,0,0,0,.43,0,.7.7,0,0,0,.07-.89,1.17,1.17,0,0,0-.43-.27c-.39-.17-.8-.31-1.2-.48a1.14,1.14,0,0,1-.79-1.34c.08-.62.39-.91,1.08-1.05a3,3,0,0,1,1.23,0,1.2,1.2,0,0,1,.94,1.39.57.57,0,0,1-.6.49c-.15,0-.33,0-.38-.15s-.07-.28.09-.35.17-.28.11-.43c-.2-.47-.63-.4-1-.4s-.63.14-.7.52.16.62.5.77.91.36,1.35.58A1.1,1.1,0,0,1,18,26.57a1,1,0,0,1-.86,1,1,1,0,0,1-1.05-.4C16,27,15.9,26.69,15.61,26.66Z" transform="translate(-2.7 -2.83)"/><path class="cls-1" d="M45.61,23.62c.2.71,0,1.07-.5,1.1-.14,0-.29,0-.36-.12a.38.38,0,0,1,0-.37c.27-.46.12-.77-.4-.84a2.72,2.72,0,0,0-.57,0,.62.62,0,0,0-.62.55.55.55,0,0,0,.39.66c.43.2.87.38,1.3.57a1.27,1.27,0,0,1,.65,1.91,1.07,1.07,0,0,1-1.66.17,2.62,2.62,0,0,1-.23-.32c-.1-.12-.2-.33-.39-.26s-.09.26-.09.41,0,.49-.37.48-.35-.26-.35-.51,0-.75,0-1.13c0-.16,0-.31.23-.33a.45.45,0,0,1,.46.11c.4.43,1,.6,1.33,1.17.08.16.34.06.41-.12s.25-.73-.17-.94-1-.42-1.5-.64a1.18,1.18,0,0,1-.7-1.53,1.06,1.06,0,0,1,.91-.82,2.23,2.23,0,0,1,2,.34C45.62,23.23,45.5,23.49,45.61,23.62Z" transform="translate(-2.7 -2.83)"/><path class="cls-1" d="M10.93,26.6c.89-.75.89-.75,1.83-.05,0-.61,0-1.16,0-1.72,0-.25,0-.44.36-.44s.39.15.38.42v2.27c0,.16,0,.37-.16.45a.54.54,0,0,1-.58-.09c-.32-.26-.54-.79-.91-.76s-.6.48-.89.75a.55.55,0,0,1-.53.12c-.22-.06-.18-.26-.18-.42,0-.78,0-1.55,0-2.33,0-.22,0-.4.32-.41s.38.15.37.42C10.92,25.37,10.93,25.93,10.93,26.6Z" transform="translate(-2.7 -2.83)"/><path class="cls-1" d="M45.61,23.62c-.15-.11-.13-.32-.23-.46a.56.56,0,0,1,.65-.42c1.83,0,2.06.23,2.06,2,0,.77,0,1.54,0,2.32,0,.28,0,.48-.39.47s-.32-.25-.32-.48c0-1,0-1.92,0-2.89,0-.33-.07-.71-.43-.77a1.74,1.74,0,0,0-1.34.08S45.61,23.59,45.61,23.62Z" transform="translate(-2.7 -2.83)"/><path class="cls-1" d="M89.66,22.75c.43,0,.87,0,1.3,0,.16,0,.37,0,.35.22s0,.42-.34.42q-1.38,0-2.76,0c-.2,0-.32-.06-.33-.29s.07-.35.32-.35Z" transform="translate(-2.7 -2.83)"/><path class="cls-1" d="M79.27,28.66v.51c0,.25-.13.32-.35.32s-.32,0-.34-.28c0-.41.17-.9-.4-1.14-.07,0,0-.2.11-.26a.65.65,0,0,1,1,.63Z" transform="translate(-2.7 -2.83)"/><path class="cls-1" d="M56.45,21.51V22c0,.25-.14.32-.36.32s-.28-.15-.28-.34,0-.6,0-.9.08-.36.33-.36.32.16.32.37v.46Z" transform="translate(-2.7 -2.83)"/><path class="cls-1" d="M50.48,21.52c0,.15,0,.3,0,.45s-.08.31-.3.31-.35-.08-.35-.32v-.9c0-.25.09-.39.36-.38s.29.18.29.39Z" transform="translate(-2.7 -2.83)"/><path class="cls-1" d="M49.29,21.47c-.16.25.25.79-.34.78s-.19-.5-.28-.76a0,0,0,0,1,0,0c.09-.26-.24-.75.31-.73S49.16,21.21,49.29,21.47Z" transform="translate(-2.7 -2.83)"/><path class="cls-1" d="M90.83,14.54c-1.17,0-2.35,0-3.52,0-.52,0-.69-.09-.69-.66,0-2.89,0-5.78,0-8.67,0-.48.22-1.11-.09-1.41s-.94,0-1.43-.1-.61.16-.61.64c0,3.51,0,7,0,10.53,0,.19,0,.38,0,.57a1,1,0,0,1-.26-.39Q82,9.91,79.87,4.75c-.44-1-.44-1-1.58-1a.68.68,0,0,0-.75.48c-.84,2-1.72,4-2.59,6q-1.17,2.73-2.36,5.44l-.12,0c0-3.39,0-6.79,0-10.19,0-.54.24-1.25-.11-1.57s-1-.06-1.59-.1c-.34,0-.49.06-.49.46,0,3.8,0,7.59,0,11.39,0,.33.07.46.44.46,1.09,0,2.19,0,3.28,0a.48.48,0,0,0,.54-.36c.33-.84.71-1.67,1-2.51a.51.51,0,0,1,.57-.4c1.45,0,2.91,0,4.36,0a.52.52,0,0,1,.57.41c.29.77.63,1.53.91,2.31a.71.71,0,0,0,.81.56c2.51,0,5,0,7.53,0,1,0,1,0,1-1C91.34,14.65,91.22,14.53,90.83,14.54ZM80,11.35H76.75c-.35,0-.36-.12-.24-.41.59-1.44,1.17-2.89,1.81-4.46.67,1.6,1.27,3.08,1.9,4.55C80.34,11.32,80.21,11.35,80,11.35Z" transform="translate(-2.7 -2.83)"/><path class="cls-1" d="M18.57,10.87c-.16-.24-.22-.37.1-.56a3.5,3.5,0,0,0,1.74-4A3.39,3.39,0,0,0,17,3.76c-1.61,0-3.21,0-4.81,0-.32,0-.43.1-.43.42q0,5.75,0,11.5c0,.3.11.39.4.38a14.42,14.42,0,0,1,1.47,0c.32,0,.42-.1.41-.42,0-1,0-1.93,0-2.89,0-.54-.23-1.25.09-1.58s1.07-.07,1.63-.12a.63.63,0,0,1,.68.37c.88,1.42,1.78,2.84,2.68,4.26.11.16.17.38.44.37.77,0,1.54,0,2.42,0ZM18,8.21a1.75,1.75,0,0,1-1.68,1.36c-.66,0-1.32,0-2,0-.29,0-.35-.11-.35-.37,0-.64,0-1.28,0-1.92S14,6,14,5.37c0-.27.09-.37.36-.36.68,0,1.36,0,2,0A1.64,1.64,0,0,1,18,6.31,3.41,3.41,0,0,1,18,8.21Z" transform="translate(-2.7 -2.83)"/><path class="cls-1" d="M11.46,7.42A3.51,3.51,0,0,0,7.58,3.73c-1.44,0-2.87,0-4.3,0-.39,0-.52.1-.51.5,0,1.89,0,3.78,0,5.66,0,1.48,0,2.95,0,4.42,0,.56-.25,1.32.12,1.62S4,16,4.55,16c.38,0,.47-.13.46-.48,0-1.27,0-2.53,0-3.8,0-.32.09-.42.41-.42a20.7,20.7,0,0,0,2.49-.05A3.76,3.76,0,0,0,11.46,7.42ZM9.06,8.49A1.86,1.86,0,0,1,7.21,10C6.59,10,6,10,5.35,10,5.06,10,5,9.86,5,9.61,5,8.2,5,6.78,5,5.37c0-.28.1-.36.36-.34h1a7.32,7.32,0,0,1,1.29.08A1.7,1.7,0,0,1,9.06,6.43,3.89,3.89,0,0,1,9.06,8.49Z" transform="translate(-2.7 -2.83)"/><path class="cls-1" d="M102,11.12a3.76,3.76,0,0,1-2.47-.82,3.61,3.61,0,0,0-3.67-.25,22.85,22.85,0,0,1-2.38,1,2.32,2.32,0,0,1-1.86-.18.82.82,0,0,1-.15-1.49.58.58,0,0,0,.25-.53A.32.32,0,0,1,92,8.52c.23-.06.28.11.35.27a1.56,1.56,0,0,0,1.8,1A8.48,8.48,0,0,0,96.59,9a6.11,6.11,0,0,1,2.4-.6,3.67,3.67,0,0,1,2.22.89,16.62,16.62,0,0,0,2.09,1.55c.19.09.25.21.14.4s-.17.37-.35.44a20.13,20.13,0,0,0-1.9,1.12,4.61,4.61,0,0,1-3,.27c-.55-.09-1.11-.19-1.68-.25a1.8,1.8,0,0,0-1.8.81,1.62,1.62,0,0,1-.29.34c-.2.15-.46.33-.66.11s.11-.34.23-.47a.62.62,0,0,0,.15-.52A1.21,1.21,0,0,1,95,11.54a6.47,6.47,0,0,1,3.29-.33,18.05,18.05,0,0,0,2.64.28A1.47,1.47,0,0,0,102,11.12Z" transform="translate(-2.7 -2.83)"/><path class="cls-1" d="M118.5,9.52a.4.4,0,0,1,0,.23,2.2,2.2,0,0,0-.57,1.71.18.18,0,0,1-.21.21c-.14,0-.14-.16-.12-.27.09-.61-.28-.89-.78-1.07a18.86,18.86,0,0,0-4.28-.77,28.51,28.51,0,0,0-7.71.5,2.3,2.3,0,0,1-1.58-.27.8.8,0,0,1-.36-1.19,1.33,1.33,0,0,0,0-.71c0-.2,0-.45.28-.51s.24.19.31.33A2.14,2.14,0,0,0,106,9c1.32-.24,2.59-.67,3.91-.9a17.77,17.77,0,0,1,7.19.15,2.8,2.8,0,0,1,1,.41A.9.9,0,0,1,118.5,9.52Z" transform="translate(-2.7 -2.83)"/><path class="cls-1" d="M121.17,20.59A21.84,21.84,0,0,1,123.3,13a2.9,2.9,0,0,1,.77-1,1,1,0,0,1,1.71.43,2.31,2.31,0,0,1,.15,1.22.28.28,0,0,1-.15.21c-.11,0-.13-.08-.16-.17-.12-.38-.36-.31-.62-.16a1.49,1.49,0,0,0-.51.52,17.5,17.5,0,0,0-2.65,6.62,3.72,3.72,0,0,0,.07,1.41c0,.13.08.29-.08.35s-.26-.1-.34-.22A4.21,4.21,0,0,1,121.17,20.59Z" transform="translate(-2.7 -2.83)"/><path class="cls-1" d="M118.09,15.5c.25.17.2.43.18.66a13.43,13.43,0,0,1-2,6.41c-.51.76-.92,1.6-1.4,2.39a2,2,0,0,1-1.94,1,11.34,11.34,0,0,1-6.69-2.84.76.76,0,0,1,.69.16A11.58,11.58,0,0,0,112.52,25a2.34,2.34,0,0,0,2.09-1,16.57,16.57,0,0,0,3.31-8.13C117.94,15.75,117.9,15.58,118.09,15.5Z" transform="translate(-2.7 -2.83)"/><path class="cls-1" d="M104.82,3a.39.39,0,0,1,.14.08c.38.51.84.41,1.36.25a1.51,1.51,0,0,1,1.45.45c.28.25.54.53.82.78a1,1,0,0,0,1.19.14.82.82,0,0,1,1.14.31,8.3,8.3,0,0,1,.85,1.84c0,.1.07.23,0,.31s-.27,0-.36-.06c-.87-.85-2.11-1.14-3-1.93a4.52,4.52,0,0,0-2.4-.74,1.84,1.84,0,0,1-1.29-.73C104.45,3.45,104.55,3.05,104.82,3Z" transform="translate(-2.7 -2.83)"/><path class="cls-1" d="M115.16,18.51c-.08-.69-.14-1.39-.24-2.07a4.56,4.56,0,0,1,.08-1.69A2.51,2.51,0,0,1,117.52,13c.12,0,.25,0,.26.16s-.14.15-.25.17a2.08,2.08,0,0,0-1,.48c-.17.17-.22.31,0,.43a1.22,1.22,0,0,1,.29.17c.19.15.48.27.44.54s-.35.44-.62.52-.51,0-.4-.34c0-.12.09-.23-.05-.28s-.21.1-.24.23a13.65,13.65,0,0,0-.32,2,10.3,10.3,0,0,0-.14,1.35,1.46,1.46,0,0,1-.9,1.44c-.26.14-.47.25-.75,0s-.57-.13-.84,0a1,1,0,0,1-1.11-.16c-.07,0-.16-.12-.12-.23s.15-.08.24-.07c.84.14,1.65-.22,2.5-.06C115,19.43,115.16,19.05,115.16,18.51Z" transform="translate(-2.7 -2.83)"/><path class="cls-1" d="M117.22,29.88a2.29,2.29,0,0,1,1-2.18,1.93,1.93,0,0,0,.9-2.13,3.16,3.16,0,0,1,.13-1.67c.28-.69.58-.64,1.18-.25s.31.59-.09.89a1.94,1.94,0,0,0-.65,1.57A4.54,4.54,0,0,1,118.53,29a2.66,2.66,0,0,0-.77,1.22c0,.15-.05.4-.27.38s-.23-.23-.25-.4Z" transform="translate(-2.7 -2.83)"/><path class="cls-1" d="M114.75,5.71c0,.09,0,.22,0,.35s-.06.44-.33.46-.32-.18-.37-.36a2.29,2.29,0,0,0-1.18-1.3,4.6,4.6,0,0,1-1.72-1.27c-.14-.2-.38-.44-.07-.68s.46,0,.6.22a2.21,2.21,0,0,0,1.54.84C114.36,4.16,114.75,4.63,114.75,5.71Z" transform="translate(-2.7 -2.83)"/><path class="cls-1" d="M103.34,19.49a.2.2,0,0,1-.23-.14,10,10,0,0,1-1.2-4.38c0-.17-.06-.41.14-.51s.24.19.37.26a1.35,1.35,0,0,1,.7,1.62,5.71,5.71,0,0,0,.16,2.63C103.33,19.14,103.47,19.31,103.34,19.49Z" transform="translate(-2.7 -2.83)"/><path class="cls-1" d="M110.39,12.2a11.87,11.87,0,0,1,1.67.1c.15,0,.36,0,.37.18s-.23.14-.35.14a7.7,7.7,0,0,0-4.23,1.2c-.12.08-.26.18-.41,0s-.07-.24,0-.37.09-.15.07-.21c-.24-.77.33-.8.82-.9A8.06,8.06,0,0,1,110.39,12.2Z" transform="translate(-2.7 -2.83)"/><path class="cls-1" d="M111.06,14.24c0,.28.42.43.17.7a1.35,1.35,0,0,1-1,.47.28.28,0,0,1-.26-.19c0-.11,0-.17.12-.22s.28-.11.17-.29a.38.38,0,0,0-.39-.17,1.6,1.6,0,0,0-.47.19c-.38.24-.67.47-.71-.29,0-.34.05-.46.3-.52a6.26,6.26,0,0,1,3,0c.14,0,.36.1.33.26s-.27.11-.42.09A3.15,3.15,0,0,0,111.06,14.24Z" transform="translate(-2.7 -2.83)"/><path class="cls-1" d="M101.29,15.76a2.38,2.38,0,0,1-.48,1.54,5.68,5.68,0,0,1-1.2,1.34c-.12.1-.25.21-.4.07a.25.25,0,0,1,0-.4.45.45,0,0,0,.11-.47.3.3,0,0,1,.1-.36A5.32,5.32,0,0,0,101.29,15.76Z" transform="translate(-2.7 -2.83)"/><path class="cls-1" d="M114.48,21.59a.78.78,0,0,0-.78.06c-.15.1-.26,0-.35-.08-.37-.42-.76-.29-1.16,0a1.25,1.25,0,0,1-1,.24c-.1,0-.24-.06-.24-.19s.13-.19.24-.18a1.87,1.87,0,0,0,1.27-.53.62.62,0,0,1,.87,0,.56.56,0,0,0,.89,0c.08-.09.22-.15.29,0a2.45,2.45,0,0,1,.28.72C114.8,21.66,114.61,21.62,114.48,21.59Z" transform="translate(-2.7 -2.83)"/><path class="cls-1" d="M122.19,27.09c-.06.05-.12.13-.19.18a2.56,2.56,0,0,0-1,1.49c0,.16-.1.36-.29.37s-.15-.22-.23-.33l0-.1c-.51-.56-.51-.56.08-1.08a2.31,2.31,0,0,1,1.43-.71C122,26.9,122.18,26.84,122.19,27.09Z" transform="translate(-2.7 -2.83)"/><path class="cls-1" d="M117.19,7.16c-.42,0-.55-.17-.6-.39a2.58,2.58,0,0,0-.6-1.32c-.14-.15-.19-.35,0-.49s.36,0,.43.18c.19.54.8.54,1.12.91.15.17.32.33.23.59a.78.78,0,0,1-.55.52Z" transform="translate(-2.7 -2.83)"/><path class="cls-1" d="M113.3,23.21a2,2,0,0,1-1.32-.84c-.06-.08-.11-.17,0-.25s.17,0,.25,0a2,2,0,0,0,2,0c.2-.12.33-.09.28.19A1.23,1.23,0,0,1,113.3,23.21Z" transform="translate(-2.7 -2.83)"/><path class="cls-1" d="M122.52,25.11a.76.76,0,0,1-.11.16,5.61,5.61,0,0,0-.85,1c-.23.35-.33.12-.37-.16s-.45-.33-.11-.6a2.2,2.2,0,0,1,1.3-.61C122.45,24.94,122.51,25,122.52,25.11Z" transform="translate(-2.7 -2.83)"/><path class="cls-1" d="M102.27,21a.57.57,0,0,1-.35-.62,5.84,5.84,0,0,0-.24-1.95c-.05-.17-.07-.42-.31-.42s-.28.24-.33.41a10.9,10.9,0,0,0-.36,1.36c-.07.37-.22.46-.57.36a2.21,2.21,0,0,0-1.17,0c-.4.1-.48.32-.29.67a1.59,1.59,0,0,0,1.39.83c.15,0,.36-.06.34.23a14.05,14.05,0,0,1-.21,2.92c-.12.42-.94.62-1.41,1a1.26,1.26,0,0,0-.13,2.14.94.94,0,0,1,.37.89c0,.12-.09.29.11.32s.23-.11.3-.22a1.39,1.39,0,0,0,0-1.3,1.43,1.43,0,0,1,.82-1.81,28.46,28.46,0,0,0,.33,3.52,1,1,0,0,0,.35-.62,12.86,12.86,0,0,0,.5-2.66,1.72,1.72,0,0,1,.94-1.5C104.14,23.33,104.08,22,102.27,21Zm.32,2.16a1.38,1.38,0,0,1-.93,1c.06-.62.11-1.18.17-1.73,0-.11,0-.25.08-.31s.25.06.35.14A.84.84,0,0,1,102.59,23.12Z" transform="translate(-2.7 -2.83)"/><path class="cls-1" d="M86.8,21.36A2.2,2.2,0,0,0,84.07,21c-.1-.2.05-.53-.33-.52s-.19.42-.36.67a2.48,2.48,0,0,0-1.61-.47,1,1,0,0,0-1,.69c-.2.54,0,.89.61.89s.94,0,1.42,0c.16,0,.47-.15.46.22s-.15.5-.5.48a4.81,4.81,0,0,1-1.68-.16.54.54,0,0,0-.77.44c-.09.36-.48.79.11,1.07a.5.5,0,0,1,.3.54c0,.75,0,1.51,0,2.26,0,.17,0,.37.18.43a.52.52,0,0,0,.53-.09c.3-.28.61-.78.91-.77s.61.5.92.77a.56.56,0,0,0,.54.09c.21-.07.17-.27.17-.43V24.62c0-.24,0-.45-.33-.46s-.37.22-.37.48c0,.63,0,1.25,0,1.95-.9-.71-.9-.71-1.83-.07V24.74c0-.34-.07-.64-.45-.75-.18-.06-.3-.12-.23-.36s.23-.24.44-.17a3.9,3.9,0,0,0,1.73.13c.7-.06,1-.34,1-1,0-.11-.1-.32.18-.31.55,0,1.1,0,1.64,0,.22,0,.25.12.25.29s0,.27-.26.24c-.67-.07-.63.52-.77.91s.14.62.51.69.31.36.27.58.27.7-.25.86a.77.77,0,0,0-.54,1,.87.87,0,0,0,.88.72c.45,0,.66-.09.63-.59a20.81,20.81,0,0,1,0-2.09c0-.49-.14-.81-.64-.91-.16,0-.35-.06-.28-.32s.2-.25.43-.19c.48.15.69-.07.73-.56,0-.21-.1-.48.1-.64C87.36,21.91,87.12,21.6,86.8,21.36Zm-5.07.35c-.13,0-.32.05-.31-.19s.13-.26.29-.29a1.86,1.86,0,0,1,1.47.48Zm4,5.31c-.24-.25-.28-.46,0-.71A.92.92,0,0,1,85.78,27Zm-.91-5.32c-.12,0-.34.1-.36-.13s.15-.33.36-.35a1.84,1.84,0,0,1,1.39.49Z" transform="translate(-2.7 -2.83)"/><path class="cls-1" d="M41.14,24a1.1,1.1,0,0,0-1.09-1.21c-1.47-.06-2.94-.05-4.41,0-.57,0-.57.56-.71,1a.43.43,0,0,0,.32.61c.28.1.26.34.25.57,0,.73,0,1.47,0,2.21,0,.43.39.66.64.34.68-.86,1.24-.92,1.93,0,.25.33.68.12.68-.3,0-.87,0-1.74,0-2.61,0-.25-.09-.39-.37-.37s-.45,0-.67,0a.59.59,0,0,0-.51.59c0,.31,0,.64.34.7.71.14.44.61.45,1.05-.93-.68-.93-.68-1.81.07v-2a.6.6,0,0,0-.31-.62c-.17-.08-.45-.07-.35-.39s.33-.25.55-.26H39.6c.6,0,.81.21.81.82q0,1.44,0,2.88c0,.28,0,.49.38.49s.36-.2.36-.45C41.15,26.08,41.17,25,41.14,24Zm-3.2,1.07c-.11,0-.15-.07-.16-.17s0-.2.11-.22.13.08.15.16S38.05,25.05,37.94,25.07Z" transform="translate(-2.7 -2.83)"/><path class="cls-1" d="M32,23c-.24,0-.47-.13-.71-.17-.57-.11-.64.35-.75.72s-.23.69.28.81c.33.07.4.27.38.57s0,.75,0,1.13c0,.7-.21.92-.85.92s-.86-.2-.87-.94,0-1.17,0-1.76c0-1-.38-1.43-1.42-1.48a2.58,2.58,0,0,0-.73.06,1,1,0,0,0-1,1.1c0,.55,0,1.09,0,1.64h0v1.59c0,.15,0,.3.16.38A1.25,1.25,0,0,0,28,27a.87.87,0,0,0-.6-1.28c-.13,0-.33,0-.33-.23a9,9,0,0,1,.06-1.64.6.6,0,0,1,.51-.46c.78-.15,1.16.12,1.2.91s0,1.36,0,2a1.09,1.09,0,0,0,1,1.16,2.64,2.64,0,0,0,1.12,0,1.09,1.09,0,0,0,.94-1A10.52,10.52,0,0,0,32,24.64a.69.69,0,0,0-.31-.58c-.19-.12-.71,0-.5-.46s.48,0,.73,0,.34,0,.39-.28S32.27,23,32,23Zm-4.82,3.27c.21,0,.26.18.25.36s0,.41-.26.42-.13-.27-.19-.4S26.94,26.23,27.22,26.23Z" transform="translate(-2.7 -2.83)"/><path class="cls-1" d="M25,23a4.44,4.44,0,0,1-.6-.16c-.53-.15-.65.23-.76.6s-.35.74.23.92c.17.06.4.07.4.33a16.88,16.88,0,0,1-.05,1.75c-.07.56-.54.55-1,.54a.63.63,0,0,1-.69-.65,8.62,8.62,0,0,0-.09-1.24,1,1,0,0,0-.88-.83,6.15,6.15,0,0,1-1.17-.37c-.14,0-.26-.08-.22-.26a.25.25,0,0,1,.31-.18c.28,0,.56.07.84.09s.29-.12.31-.31-.09-.27-.26-.29-.61,0-.9-.11c-.5-.12-.68.17-.82.56s-.23.74.36.89a1.11,1.11,0,0,0-.64.93c0,.68,0,1.36,0,2a.3.3,0,0,0,.34.35,2.08,2.08,0,0,0,.78-.08.83.83,0,0,0,.59-.81.71.71,0,0,0-.63-.7c-.14,0-.33,0-.38-.25a.8.8,0,0,1,.65-1c.77-.13,1.1.16,1.09,1,0,1.39.51,2,2.17,1.71a1,1,0,0,0,1-1.08c0-.58,0-1.17,0-1.75A.59.59,0,0,0,24.5,24c-.22,0-.43-.08-.31-.39s.29-.15.46-.1l.27.08c.23.06.36,0,.4-.26S25.3,23,25,23Zm-4.8,3.5a.23.23,0,0,1,.29.25.31.31,0,0,1-.24.31c-.18,0-.19-.09-.19-.21S20,26.49,20.23,26.46Z" transform="translate(-2.7 -2.83)"/><path class="cls-1" d="M8.9,27c0-.51,0-1,0-1.53h0c0-.62.05-1.25,0-1.87-.07-.84-.6-1.08-1.27-.56-.26.21-.39.18-.64,0-.6-.49-1.13-.27-1.23.5a34.58,34.58,0,0,0-.08,3.67c0,.25.1.39.37.39a2.16,2.16,0,0,0,.84-.11.94.94,0,0,0,.53-.93.67.67,0,0,0-.49-.74c-.51-.08-.56-.37-.53-.78s0-.76,0-1.13c0-.17,0-.38.15-.46s.3.11.42.23.31.35.55.09.28-.45.53-.3.16.41.16.63c0,1,0,1.93,0,2.89,0,.26-.12.61.35.6S8.89,27.23,8.9,27Zm-2.36-.75c.23,0,.24.19.23.36s0,.39-.22.4-.14-.23-.19-.37S6.28,26.25,6.54,26.24Z" transform="translate(-2.7 -2.83)"/><path class="cls-1" d="M13.22,21.4a3.21,3.21,0,0,0-1.29-.68,1.38,1.38,0,0,0-1.42.29.93.93,0,0,0-.22.95c.11.36.43.29.71.29h1.36c.13,0,.32-.05.36.08a1,1,0,0,1,0,.77.7.7,0,0,1-.76.37c-.21,0-.46,0-.52-.3s-.36-.45-.69-.41a.48.48,0,0,0-.46.48.6.6,0,0,0,.48.67,3.23,3.23,0,0,0,1.12.15c1.29,0,1.64-.34,1.65-1.63C13.51,22.07,13.59,21.68,13.22,21.4Zm-2,.3c-.12,0-.31.08-.32-.12a.33.33,0,0,1,.31-.35,1.84,1.84,0,0,1,1.46.48Z" transform="translate(-2.7 -2.83)"/><path class="cls-1" d="M91.14,26.29c.07-1.77-.2-2.23-2.07-2.11a1.09,1.09,0,0,0-1.17,1.18c0,.49,0,1,0,1.47,0,.75.1.84.85.72a.86.86,0,0,0,.84-.77.7.7,0,0,0-.67-.82c-.31-.05-.35-.21-.31-.48.08-.56.33-.75,1-.74s.81.24.81.79,0,1,0,1.53c0,.25,0,.5.36.51s.38-.23.37-.49S91.14,26.55,91.14,26.29Zm-2.35.16a.23.23,0,0,1,.23.24c0,.18-.09.31-.26.33s-.18-.14-.18-.26S88.56,26.44,88.79,26.45Z" transform="translate(-2.7 -2.83)"/><path class="cls-1" d="M72.34,27.05V24.17c0-1-.42-1.39-1.37-1.42-.49,0-1,0-1.47,0-.71,0-.83.14-1.06.91-.16.57.22.64.59.74a.26.26,0,0,1,.21.29c0,.24-.19.19-.33.19s-.46,0-.68,0c-.4,0-.89.16-.91-.55,0-.21-.32-.3-.54-.35s-.37-.09-.28-.36.28-.19.46-.13l.27.09c.22.07.35,0,.41-.24s0-.36-.25-.38a1.3,1.3,0,0,1-.39-.09c-.45-.18-.79-.15-1,.39-.25.74-.23.87.4,1.12a.4.4,0,0,1,.28.53c-.07.3.23.73-.21.88a.82.82,0,0,0-.58,1.11c.13.52.53.67,1,.67.36,0,.46-.15.45-.48s0-.86,0-1.3c0-.2,0-.38.28-.37H69c.12,0,.24,0,.26.16s-.06.19-.19.22a.8.8,0,0,0-.62,1.08,1,1,0,0,0,1.1.69c.37,0,.45-.17.44-.49,0-.75,0-1.51,0-2.26a.73.73,0,0,0-.6-.83c-.16,0-.4,0-.34-.32s.24-.3.46-.3h1c1,0,1.12.14,1.12,1.16v2.54c0,.26,0,.51.36.5S72.34,27.3,72.34,27.05Zm-5.7,0c-.26-.24-.24-.45,0-.77A.91.91,0,0,1,66.64,27ZM69.18,27a.39.39,0,0,1-.07-.65C69.36,26.53,69.21,26.76,69.18,27Z" transform="translate(-2.7 -2.83)"/><path class="cls-1" d="M64.69,23.57a.5.5,0,0,0-.27-.75c-.33-.14-.69-.1-.81.26s-.39.46-.73.38a.66.66,0,0,1-.54-.7c0-.17,0-.34,0-.51S62.16,22,62,22s-.3,0-.37.18a1.37,1.37,0,0,0,1.12,1.85,3.56,3.56,0,0,0,.73,0,.47.47,0,0,1,.59.38,9.53,9.53,0,0,1,.1,2.16c-1-.78-1-.78-1.84,0,0-.6,0-1.09,0-1.57s-.31-.64-.76-.61-.41.28-.2.45.24.48.25.75c0,.49,0,1,0,1.47,0,.16,0,.36.16.44s.42.1.53-.07c.64-.92,1.22-.87,1.91,0,.28.35.65.12.65-.37,0-.78,0-1.55,0-2.32a1,1,0,0,0-.14-.6A.45.45,0,0,1,64.69,23.57Z" transform="translate(-2.7 -2.83)"/><path class="cls-1" d="M53,24.07a1.18,1.18,0,0,0-1.28-1.32c-.59,0-1.17,0-1.76,0s-.71.49-.85.94.14.61.51.69.32.4.28.64.24.66-.26.8-.63.55-.54,1a.89.89,0,0,0,.89.72c.44,0,.66-.08.63-.58,0-.72,0-1.44,0-2.15A.74.74,0,0,0,50,24c-.17,0-.35-.06-.3-.31a.36.36,0,0,1,.41-.3h1.25c.75,0,.94.19.94.93v2.77c0,.26,0,.5.36.5s.35-.27.35-.51V25.54C53,25.05,53,24.56,53,24.07Zm-3.11,3a.57.57,0,0,1-.1-.81C50,26.54,49.92,26.76,49.9,27.09Z" transform="translate(-2.7 -2.83)"/><path class="cls-1" d="M57.84,23c-.24,0-.47-.14-.71-.18-.61-.08-.62.41-.76.79s-.17.63.28.75c.2.06.41.1.4.39,0,.53,0,1.06,0,1.58a.63.63,0,0,1-.66.64c-.87.08-1.13-.15-1.14-1v-.56c-.08-.49.28-1.22-.62-1.43-.13,0-.08-.19-.05-.3s.13-.23.29-.18.36.12.55.16a.23.23,0,0,0,.28-.21c0-.14.1-.33-.09-.39a3.11,3.11,0,0,0-1-.23c-.5,0-.5.49-.62.83s-.19.56.14.68.37.37.36.66,0,.68,0,1c0,1.2.43,1.6,1.62,1.6a4.34,4.34,0,0,0,.62-.06,1.05,1.05,0,0,0,1-1.15c0-.57,0-1.13,0-1.7a.6.6,0,0,0-.49-.66c-.22,0-.42-.08-.31-.39s.29-.15.46-.1.22.07.33.09.32-.06.34-.27S58.08,23,57.84,23Z" transform="translate(-2.7 -2.83)"/><path class="cls-1" d="M59.88,22.89a.6.6,0,0,0-1,.37c-.25.74-.24.87.4,1.12.31.11.3.33.26.54s.23.71-.22.88a.81.81,0,0,0-.56,1.07c.12.53.52.7,1.08.7.36.06.47-.15.46-.53,0-.68,0-1.36,0-2s-.11-.93-.71-1c-.19,0-.32-.11-.22-.35s.15-.2.34-.17.64.43.79-.11S60.1,23,59.88,22.89Zm-.34,4.2c-.26-.32-.3-.52-.07-.79C59.62,26.55,59.56,26.76,59.54,27.09Z" transform="translate(-2.7 -2.83)"/></svg>