<svg xmlns="http://www.w3.org/2000/svg" xmlns:xlink="http://www.w3.org/1999/xlink" viewBox="0 0 917.95 611.97"><defs><style>.cls-1{isolation:isolate;}.cls-2{fill:url(#radial-gradient);}.cls-3{fill:url(#linear-gradient);}.cls-4{fill:url(#radial-gradient-2);}.cls-5{fill:url(#linear-gradient-2);}.cls-12,.cls-13,.cls-14,.cls-15,.cls-6{mix-blend-mode:overlay;}.cls-6{fill:url(#linear-gradient-3);}.cls-7{fill:url(#linear-gradient-4);}.cls-8{fill:url(#linear-gradient-5);}.cls-16,.cls-17,.cls-9{mix-blend-mode:multiply;}.cls-9{fill:url(#linear-gradient-6);}.cls-10{fill:url(#radial-gradient-3);}.cls-11{fill:url(#linear-gradient-7);}.cls-12{fill:url(#linear-gradient-8);}.cls-13{fill:url(#linear-gradient-9);}.cls-14{fill:url(#linear-gradient-10);}.cls-15{fill:url(#linear-gradient-11);}.cls-16{fill:url(#linear-gradient-12);}.cls-17{fill:url(#linear-gradient-13);}</style><radialGradient id="radial-gradient" cx="460.05" cy="305.27" r="491.01" gradientTransform="translate(-2.16)" gradientUnits="userSpaceOnUse"><stop offset="0" stop-color="#3d1435"/><stop offset="0.44" stop-color="#3a1332"/><stop offset="0.79" stop-color="#300e2a"/><stop offset="1" stop-color="#260921"/></radialGradient><linearGradient id="linear-gradient" x1="-44.34" y1="402.92" x2="166.96" y2="614.22" gradientUnits="userSpaceOnUse"><stop offset="0" stop-color="#6c0041"/><stop offset="0.16" stop-color="#730243"/><stop offset="0.38" stop-color="#87074a"/><stop offset="0.65" stop-color="#a70f56"/><stop offset="0.96" stop-color="#d31a65"/><stop offset="1" stop-color="#da1c68"/></linearGradient><radialGradient id="radial-gradient-2" cx="60.7" cy="481.2" r="100.39" gradientTransform="translate(-2.16)" gradientUnits="userSpaceOnUse"><stop offset="0" stop-color="#3d1435"/><stop offset="0.59" stop-color="#3b1333"/><stop offset="0.82" stop-color="#34102d"/><stop offset="0.98" stop-color="#280a23"/><stop offset="1" stop-color="#260921"/></radialGradient><linearGradient id="linear-gradient-2" x1="216.53" y1="697.66" x2="-36.35" y2="444.78" gradientUnits="userSpaceOnUse"><stop offset="0" stop-color="#edb993"/><stop offset="0.12" stop-color="#ecb291"/><stop offset="0.3" stop-color="#ea9e8c"/><stop offset="0.51" stop-color="#e67e83"/><stop offset="0.75" stop-color="#e05277"/><stop offset="1" stop-color="#da1c68"/></linearGradient><linearGradient id="linear-gradient-3" x1="-24.09" y1="507.3" x2="60.99" y2="592.37" gradientUnits="userSpaceOnUse"><stop offset="0" stop-color="#fff"/><stop offset="1" stop-color="#fff" stop-opacity="0"/></linearGradient><linearGradient id="linear-gradient-4" x1="49.31" y1="566.53" x2="237.81" y2="566.53" xlink:href="#linear-gradient-2"/><linearGradient id="linear-gradient-5" x1="1001.21" y1="250.56" x2="667" y2="-83.65" xlink:href="#linear-gradient"/><linearGradient id="linear-gradient-6" x1="-1293.63" y1="530.26" x2="-1212.2" y2="558.54" gradientTransform="matrix(-1, 0, 0, 1, -477.36, -416.74)" gradientUnits="userSpaceOnUse"><stop offset="0" stop-color="#fff"/><stop offset="0.08" stop-color="#f7f6f6"/><stop offset="0.23" stop-color="#e2dddf"/><stop offset="0.4" stop-color="#bfb3ba"/><stop offset="0.61" stop-color="#8f7b85"/><stop offset="0.85" stop-color="#533344"/><stop offset="1" stop-color="#280015"/></linearGradient><radialGradient id="radial-gradient-3" cx="-2636.27" cy="617.09" r="92.05" gradientTransform="translate(-1778.33 736.38) rotate(180)" gradientUnits="userSpaceOnUse"><stop offset="0" stop-color="#3d1435"/><stop offset="0.5" stop-color="#3b1333"/><stop offset="0.79" stop-color="#320f2c"/><stop offset="1" stop-color="#260921"/></radialGradient><linearGradient id="linear-gradient-7" x1="-2466.54" y1="840.44" x2="-2727.47" y2="579.5" gradientTransform="translate(-1772.01 736.38) rotate(180)" xlink:href="#linear-gradient-2"/><linearGradient id="linear-gradient-8" x1="750.32" y1="-29.59" x2="905.24" y2="125.33" xlink:href="#linear-gradient-3"/><linearGradient id="linear-gradient-9" x1="842.46" y1="519.27" x2="514.4" y2="191.21" gradientUnits="userSpaceOnUse"><stop offset="0" stop-color="#fff"/><stop offset="0.06" stop-color="#fff" stop-opacity="0.86"/><stop offset="0.16" stop-color="#fff" stop-opacity="0.66"/><stop offset="0.26" stop-color="#fff" stop-opacity="0.49"/><stop offset="0.37" stop-color="#fff" stop-opacity="0.34"/><stop offset="0.48" stop-color="#fff" stop-opacity="0.21"/><stop offset="0.59" stop-color="#fff" stop-opacity="0.12"/><stop offset="0.71" stop-color="#fff" stop-opacity="0.05"/><stop offset="0.84" stop-color="#fff" stop-opacity="0.01"/><stop offset="1" stop-color="#fff" stop-opacity="0"/></linearGradient><linearGradient id="linear-gradient-10" x1="16.36" y1="-8.75" x2="569.59" y2="544.47" xlink:href="#linear-gradient-9"/><linearGradient id="linear-gradient-11" x1="175.2" y1="-28.43" x2="700.04" y2="496.42" xlink:href="#linear-gradient-9"/><linearGradient id="linear-gradient-12" x1="308.07" y1="312.72" x2="208.98" y2="399.58" gradientUnits="userSpaceOnUse"><stop offset="0" stop-color="#fff"/><stop offset="0.17" stop-color="#fcfcfc"/><stop offset="0.3" stop-color="#f4f2f3"/><stop offset="0.42" stop-color="#e5e1e4"/><stop offset="0.54" stop-color="#d0cacf"/><stop offset="0.64" stop-color="#b5acb4"/><stop offset="0.75" stop-color="#958692"/><stop offset="0.85" stop-color="#6e5a6a"/><stop offset="0.95" stop-color="#42283d"/><stop offset="1" stop-color="#260921"/></linearGradient><linearGradient id="linear-gradient-13" x1="-1985.38" y1="226.2" x2="-2084.38" y2="312.97" gradientTransform="translate(-1316.55 464.68) rotate(180)" xlink:href="#linear-gradient-12"/></defs><title>PruLeaderBoardOnlyBG</title><g class="cls-1"><g id="OBJECTS"><rect class="cls-2" width="917.95" height="610.54"/><polygon class="cls-3" points="326.55 610.54 0 610.54 0 284.75 326.55 610.54"/><path class="cls-4" d="M108.71,502.09,0,610.54V351.86l92.08,91.86,16.63,16.6A29.49,29.49,0,0,1,108.71,502.09Z"/><path class="cls-5" d="M65,493.7,0,558.59V403.82l55.09,55,10,9.93A17.64,17.64,0,0,1,65,493.7Z"/><polygon class="cls-6" points="158.31 610.54 0 610.54 0 452.61 158.31 610.54"/><path class="cls-7" d="M237.81,610.54l-84-83.76a14.59,14.59,0,0,0-20.59,0L49.31,610.54Z"/><polygon class="cls-8" points="917.95 0.01 917.95 333.82 583.35 0 917.95 0.01"/><polygon class="cls-9" points="677.45 0.01 917.95 239.94 917.95 100.53 817.19 0.01 677.45 0.01"/><path class="cls-10" d="M818.28,100.14,918,.69v237.2l-84.43-84.23-15.24-15.22A27,27,0,0,1,818.28,100.14Z"/><path class="cls-11" d="M850.84,106.39,918,39.44v159.7l-56.84-56.71-10.27-10.25A18.2,18.2,0,0,1,850.84,106.39Z"/><polygon class="cls-12" points="917.95 76.73 917.95 198.89 718.59 0 841.03 0 917.95 76.73"/><polygon class="cls-13" points="917.95 418.84 917.95 610.53 759.23 610.53 147.26 0 498.13 0 917.95 418.84"/><polygon class="cls-14" points="0 150.86 460.75 610.53 811.62 610.53 199.66 0 0 0 0 150.86"/><polygon class="cls-15" points="878.23 610.53 751.52 610.53 139.55 0 266.26 0 878.23 610.53"/><polygon class="cls-16" points="21.18 0 0 0 0 150.86 460.75 610.53 633.14 610.53 21.18 0"/><polygon class="cls-17" points="583.91 0.01 411.52 0.01 896.78 484.13 917.95 484.13 917.95 333.27 583.91 0.01"/></g></g></svg>